# xmcd
# Copyright (C) 1995-1998 Ti Kan
#
# Track frame offsets:
#       150
#       20660
#       40915
#       62405
#       80115
#       92310
#       99685
#       125257
#       150602
#       169152
#       189967
#       206007
#
# Disc length: 2928 seconds
#
# Revision: 0
# Processed by: cddbd v1.5.1PL0 Copyright (c) Steve Scherf et al.
# Submitted via: CD-Transfer v1.0
#
DISCID=940b6e0c
DTITLE=Groovinx - 
DYEAR=93
DGENRE=
TTITLE0=Run for cover
TTITLE1=Got to get
TTITLE2=On and on
TTITLE3=Cheek to cheek
TTITLE4=Tell me how it feels
TTITLE5=Don't go
TTITLE6=Tales of Mr. Bixby
TTITLE7=Merry go round
TTITLE8=Stop- in the name uf Funk
TTITLE9=Streets
TTITLE10=An acid piece
TTITLE11=Love takes chances
EXTD=
EXTT0=
EXTT1=
EXTT2=
EXTT3=
EXTT4=
EXTT5=
EXTT6=
EXTT7=
EXTT8=
EXTT9=
EXTT10=
EXTT11=
PLAYORDER=
